<svg xmlns="http://www.w3.org/2000/svg" xmlns:xlink="http://www.w3.org/1999/xlink" xmlns:inkscape="http://www.inkscape.org/namespaces/inkscape" version="1.1" width="419.75" height="70.6604" viewBox="0 0 419.75 70.6604">
<defs>
<clipPath id="clip_1">
<path transform="matrix(1,0,0,-1,0,70.6604)" d="M0 70.66H419.75V0H0Z"/>
</clipPath>
</defs>
<g clip-path="url(#clip_1)">
<path transform="matrix(1,0,0,-1,204.1746,2.5926972)" d="M0 0C.339 1.867 5.603 1.335 7.046 .827L33.165-26.429V1.209H40.075V-35.929C40.075-37.671 34.471-37.314 33.319-36.812 24.505-27.722 16.127-18.184 6.909-9.501V-37.138H.518L0-36.62Z" fill="#ffffff"/>
<path transform="matrix(1,0,0,-1,286.7427,29.0214)" d="M0 0V27.638H6.909V-9.501C6.909-11.063 1.173-10.999 .154-10.383L-26.256 16.928V-10.191L-26.774-10.71H-33.165V26.774C-33.165 28.001-27.43 27.853-26.41 27.311Z" fill="#ffffff"/>
<path transform="matrix(1,0,0,-1,335.1089,1.3834992)" d="M0 0V-6.564H-25.565V-15.374L-25.047-15.892H-1.382V-22.11H-25.047L-25.565-22.628V-31.784H0V-38.348H-32.129V0Z" fill="#ffffff"/>
<path transform="matrix(1,0,0,-1,378.6385,1.3834992)" d="M0 0V-6.046L-.518-6.564H-20.901C-22.915-6.564-26.117-9.321-27.13-11.044-29.511-15.094-29.422-24.32-26.601-28.156-25.519-29.626-22.36-31.784-20.556-31.784H0V-37.829L-.518-38.348H-20.901C-23.819-38.348-28.909-35.838-30.971-33.735-37.086-27.498-37.331-12.553-31.96-5.869-29.999-3.428-25.121 0-21.938 0Z" fill="#ffffff"/>
<path transform="matrix(1,0,0,-1,143.7168,1.3834992)" d="M0 0V-6.564H-20.556C-22.692-6.564-26.172-9.474-27.138-11.382-29.158-15.37-29.067-25.361-25.909-28.845-25.073-29.767-21.691-31.784-20.556-31.784H0V-38.348H-20.901C-23.723-38.348-28.778-35.729-30.763-33.7-37.172-27.151-36.956-11.046-30.538-4.527-28.829-2.791-23.984 0-21.592 0Z" fill="#ffffff"/>
<path transform="matrix(1,0,0,-1,419.7498,1.3834992)" d="M0 0V-6.046L-.518-6.564H-13.819V-38.348H-20.21L-20.728-37.829V-6.564H-34.202V0Z" fill="#ffffff"/>
<path transform="matrix(1,0,0,-1,175.1549,35.2399)" d="M0 0C17.849 1.298 18.252 27.804 .345 29.021 .684 31.112-.397 33.05-.002 35.24 14.13 35.099 23.19 22.667 19.867 8.98 18.003 1.302 11.419-4.174 3.818-5.718 3.152-5.853 0-6.493 0-5.7Z" fill="#ffffff"/>
<path transform="matrix(1,0,0,-1,171.7001,.001701355)" d="M0 0V-5.7L-.582-6.155C-18.103-8.092-17.484-33.588 0-35.238V-40.939C-.509-41.589-1.999-41.137-2.836-41.009-27.76-37.202-25.126-.132 0 0" fill="#ffffff"/>
<path transform="matrix(1,0,0,-1,83.259,1.3834992)" d="M0 0H7.6L-12.278-37.297C-13.66-38.968-18.647-38.811-19.991-37.092L-39.729 0H-32.302L-16.065-30.395Z" fill="#67b345"/>
<path transform="matrix(1,0,0,-1,0,70.6604)" d="M36.275 30.929H0V37.493H36.275Z" fill="#67b345"/>
<path transform="matrix(1,0,0,-1,36.2747,1.3834992)" d="M0 0V-6.046L-.518-6.564H-36.275V0Z" fill="#67b345"/>
<path transform="matrix(1,0,0,-1,0,70.6604)" d="M35.584 47.167H0V53.386H35.584Z" fill="#67b345"/>
<path transform="matrix(1,0,0,-1,394.1848,62.1868)" d="M0 0C.182-1.528-.655-4.596 1.044-5.347 1.822-5.69 9.933-5.687 11.234-5.534 14.9-5.103 13.509 0 11.919 0ZM15.201 10.71V7.946H1.9C.079 7.946-.299 4.11 0 2.764H11.919C13.5 2.764 15.821 1.068 16.158-.597 16.779-3.666 16.326-7.395 12.802-8.138 10.743-8.572 3.78-8.542 1.554-8.292-.918-8.015-2.739-6.439-3.079-3.942-3.359-1.881-3.36 3.954-3.079 6.015-2.858 7.633-1.975 8.912-.591 9.746-.313 9.914 1.437 10.71 1.555 10.71Z" fill="#67b345"/>
<path transform="matrix(1,0,0,-1,308.162,67.7144)" d="M0 0H16.237V-2.764H-3.109V3.282C-3.109 4.981-1.333 7.265 .409 7.71 3.324 8.454 5.737 7.891 8.468 7.921 9.076 7.928 11.624 8.278 12.085 8.471 14.266 9.381 13.797 13.473 11.573 13.473H-2.764V16.237H11.919C13.366 16.237 15.613 14.678 16.164 13.228 17.52 9.663 15.733 6.081 11.889 5.558 7.082 4.903-1.563 8.08 0 0" fill="#67b345"/>
<path transform="matrix(1,0,0,-1,362.7468,54.2409)" d="M0 0 .048 2.198 .566 2.715C4.536 2.284 14.837 3.987 17.699 1.386 19.522-.27 19.517-4.909 17.7-6.569 13.204-10.677 1.043-3.562 2.764-13.473H18.483L18.947-14.045 19.001-16.237H-.345V-10.191C-.345-9.702 .632-7.56 1.034-7.08 3.121-4.583 8.551-5.764 11.569-5.524 14.393-5.299 16.598-5.085 15.883-1.56 15.766-.983 14.79 0 14.337 0Z" fill="#67b345"/>
<path transform="matrix(1,0,0,-1,337.6378,66.9146)" d="M0 0C.389-.425 1.192-.744 1.776-.815 3.186-.987 9.47-.996 10.617-.645 11.548-.361 12.499 .838 12.652 1.811 12.859 3.124 12.855 9.504 12.517 10.619 12.111 11.959 10.666 12.529 9.39 12.673 7.362 12.902 1.399 13.041 .042 11.657-1.353 10.234-1.163 3.883-.78 1.814-.685 1.303-.339 .37 0 0M1.534 15.347C3.62 15.647 8.25 15.646 10.336 15.347 13.474 14.898 15.462 12.887 15.777 9.733 16.085 6.657 16.334-.35 13.688-2.334 11.523-3.958 4.229-3.866 1.443-3.564-1.25-3.273-3.503-1.263-3.88 1.476-4.128 3.275-4.147 8.958-3.831 10.693-3.374 13.2-.885 15 1.534 15.347" fill="#67b345"/>
<path transform="matrix(1,0,0,-1,174.8094,17.966301)" d="M0 0H6.909L-2.938-16.581-2.418-5.182H-9.673L.004 11.398C.572 11.491 .326 10.932 .346 10.543 .529 7.005-.276 3.544 0 0" fill="#67b345"/>
</g>
</svg>
